<svg width="931" height="590" viewBox="0 0 931 590" fill="none" xmlns="http://www.w3.org/2000/svg">
<rect x="0.5" y="0.5" width="930" height="589" rx="11.5" fill="#151515" stroke="#323232"/>
<path d="M12 0.5H919C925.351 0.5 930.5 5.64873 930.5 12V64.5H0.5V12C0.5 5.64873 5.64873 0.5 12 0.5Z" fill="#121212" stroke="#323232"/>
<rect x="1" y="64" width="929" height="1" fill="#121212"/>
<rect x="363.5" y="17" width="216" height="32" rx="4.5" stroke="#323232"/>
<rect x="377" y="20.5" width="25" height="25" rx="5" fill="#151515"/>
<path d="M392 40.5V34.2778C392 34.0715 391.912 33.8737 391.756 33.7278C391.6 33.5819 391.388 33.5 391.167 33.5H387.833C387.612 33.5 387.4 33.5819 387.244 33.7278C387.088 33.8737 387 34.0715 387 34.2778V40.5" stroke="white" stroke-linecap="round" stroke-linejoin="round"/>
<path d="M382 31.8156C382 31.5859 382.053 31.3589 382.155 31.1506C382.257 30.9422 382.406 30.7575 382.591 30.6092L388.424 25.873C388.725 25.6322 389.106 25.5 389.5 25.5C389.894 25.5 390.275 25.6322 390.576 25.873L396.409 30.6092C396.594 30.7575 396.743 30.9422 396.845 31.1506C396.947 31.3589 397 31.5859 397 31.8156V38.921C397 39.3398 396.824 39.7414 396.512 40.0375C396.199 40.3336 395.775 40.5 395.333 40.5H383.667C383.225 40.5 382.801 40.3336 382.488 40.0375C382.176 39.7414 382 39.3398 382 38.921V31.8156Z" stroke="white" stroke-linecap="round" stroke-linejoin="round"/>
<rect x="418" y="20.5" width="25" height="25" rx="5" fill="#363636"/>
<path d="M433.5 37.5L438 33L433.5 28.5" stroke="white" stroke-linecap="round" stroke-linejoin="round"/>
<path d="M427.5 28.5L423 33L427.5 37.5" stroke="white" stroke-linecap="round" stroke-linejoin="round"/>
<rect opacity="0.5" x="459" y="20.5" width="25" height="25" rx="5" fill="#151515"/>
<path d="M475.625 38H469.249C468.275 37.9998 467.321 37.7417 466.492 37.2546C465.664 36.7676 464.994 36.0707 464.557 35.2419C464.121 34.4131 463.935 33.485 464.02 32.5613C464.106 31.6376 464.459 30.7548 465.041 30.0114C465.623 29.268 466.411 28.6934 467.316 28.3518C468.221 28.0101 469.208 27.9149 470.167 28.0768C471.126 28.2386 472.018 28.6512 472.745 29.2683C473.472 29.8854 474.004 30.6828 474.282 31.5714H475.625C476.52 31.5714 477.378 31.9101 478.011 32.5129C478.644 33.1157 479 33.9332 479 34.7857C479 35.6382 478.644 36.4558 478.011 37.0586C477.378 37.6614 476.52 38 475.625 38Z" stroke="white" stroke-linecap="round" stroke-linejoin="round"/>
<rect opacity="0.5" x="541" y="20.5" width="25" height="25" rx="5" fill="#151515"/>
<path d="M553.659 26H553.341C552.959 26 552.592 26.1475 552.322 26.4101C552.052 26.6726 551.9 27.0287 551.9 27.4V27.526C551.9 27.7715 551.833 28.0126 551.706 28.2252C551.58 28.4377 551.398 28.6142 551.179 28.737L550.869 28.912C550.65 29.0349 550.401 29.0996 550.148 29.0996C549.895 29.0996 549.647 29.0349 549.427 28.912L549.319 28.856C548.988 28.6707 548.595 28.6204 548.227 28.7162C547.858 28.812 547.543 29.0461 547.351 29.367L547.193 29.633C547.002 29.9543 546.95 30.3359 547.049 30.6942C547.148 31.0525 547.389 31.3581 547.719 31.544L547.827 31.614C548.045 31.7362 548.226 31.9116 548.353 32.1228C548.479 32.334 548.546 32.5737 548.548 32.818V33.175C548.549 33.4217 548.483 33.6643 548.356 33.8782C548.23 34.092 548.047 34.2697 547.827 34.393L547.719 34.456C547.389 34.6419 547.148 34.9475 547.049 35.3058C546.95 35.6641 547.002 36.0457 547.193 36.367L547.351 36.633C547.543 36.9539 547.858 37.188 548.227 37.2838C548.595 37.3796 548.988 37.3293 549.319 37.144L549.427 37.088C549.647 36.9651 549.895 36.9004 550.148 36.9004C550.401 36.9004 550.65 36.9651 550.869 37.088L551.179 37.263C551.398 37.3858 551.58 37.5623 551.706 37.7748C551.833 37.9874 551.9 38.2285 551.9 38.474V38.6C551.9 38.9713 552.052 39.3274 552.322 39.5899C552.592 39.8525 552.959 40 553.341 40H553.659C554.041 40 554.408 39.8525 554.678 39.5899C554.948 39.3274 555.1 38.9713 555.1 38.6V38.474C555.1 38.2285 555.167 37.9874 555.294 37.7748C555.42 37.5623 555.602 37.3858 555.821 37.263L556.131 37.088C556.35 36.9651 556.599 36.9004 556.852 36.9004C557.105 36.9004 557.353 36.9651 557.573 37.088L557.681 37.144C558.012 37.3293 558.405 37.3796 558.773 37.2838C559.142 37.188 559.457 36.9539 559.649 36.633L559.807 36.36C559.998 36.0387 560.05 35.6571 559.951 35.2988C559.852 34.9405 559.611 34.6349 559.281 34.449L559.173 34.393C558.953 34.2697 558.77 34.092 558.644 33.8782C558.517 33.6643 558.451 33.4217 558.452 33.175V32.825C558.451 32.5783 558.517 32.3357 558.644 32.1218C558.77 31.908 558.953 31.7303 559.173 31.607L559.281 31.544C559.611 31.3581 559.852 31.0525 559.951 30.6942C560.05 30.3359 559.998 29.9543 559.807 29.633L559.649 29.367C559.457 29.0461 559.142 28.812 558.773 28.7162C558.405 28.6204 558.012 28.6707 557.681 28.856L557.573 28.912C557.353 29.0349 557.105 29.0996 556.852 29.0996C556.599 29.0996 556.35 29.0349 556.131 28.912L555.821 28.737C555.602 28.6142 555.42 28.4377 555.294 28.2252C555.167 28.0126 555.1 27.7715 555.1 27.526V27.4C555.1 27.0287 554.948 26.6726 554.678 26.4101C554.408 26.1475 554.041 26 553.659 26Z" stroke="white" stroke-linecap="round" stroke-linejoin="round"/>
<path d="M553.5 35.1C554.694 35.1 555.663 34.1598 555.663 33C555.663 31.8402 554.694 30.9 553.5 30.9C552.306 30.9 551.338 31.8402 551.338 33C551.338 34.1598 552.306 35.1 553.5 35.1Z" stroke="white" stroke-linecap="round" stroke-linejoin="round"/>
<rect opacity="0.5" x="500" y="20.5" width="25" height="25" rx="5" fill="#151515"/>
<path d="M509.656 38.9217C511.162 39.6943 512.895 39.9036 514.541 39.5118C516.188 39.12 517.641 38.1529 518.638 36.7848C519.635 35.4167 520.11 33.7376 519.978 32.0499C519.847 30.3623 519.117 28.7772 517.92 27.5802C516.723 26.3833 515.138 25.6532 513.45 25.5215C511.762 25.3899 510.083 25.8653 508.715 26.8622C507.347 27.859 506.38 29.3117 505.988 30.9585C505.596 32.6053 505.806 34.3379 506.578 35.844L505 40.5L509.656 38.9217Z" stroke="white" stroke-linecap="round" stroke-linejoin="round"/>
<path d="M909 28L899.5 37.5" stroke="#313131" stroke-linecap="round" stroke-linejoin="round"/>
<path d="M899.5 28L909 37.5" stroke="#313131" stroke-linecap="round" stroke-linejoin="round"/>
<path d="M868 28H861C860.448 28 860 28.4477 860 29V36C860 36.5523 860.448 37 861 37H868C868.552 37 869 36.5523 869 36V29C869 28.4477 868.552 28 868 28Z" stroke="#313131" stroke-linecap="round" stroke-linejoin="round"/>
<path d="M818 32H830" stroke="#313131" stroke-linecap="round" stroke-linejoin="round"/>
<path d="M22.5033 37.5C22.254 37.5 22.0486 37.4193 21.8873 37.258C21.726 37.0967 21.6453 36.8913 21.6453 36.642V21.176C21.6453 20.9267 21.726 20.7213 21.8873 20.56C22.0486 20.3987 22.254 20.318 22.5033 20.318H26.9033C27.9886 20.318 28.9493 20.56 29.7853 21.044C30.6213 21.5133 31.274 22.166 31.7433 23.002C32.2126 23.838 32.4473 24.806 32.4473 25.906C32.4473 26.9767 32.2126 27.93 31.7433 28.766C31.274 29.5873 30.6213 30.24 29.7853 30.724C28.9493 31.1933 27.9886 31.428 26.9033 31.428H23.3613V36.642C23.3613 36.8913 23.2806 37.0967 23.1193 37.258C22.958 37.4193 22.7526 37.5 22.5033 37.5ZM23.3613 29.778H26.9033C27.6513 29.778 28.3186 29.6167 28.9053 29.294C29.492 28.9567 29.9466 28.4947 30.2693 27.908C30.6066 27.3213 30.7753 26.654 30.7753 25.906C30.7753 25.1287 30.6066 24.4467 30.2693 23.86C29.9466 23.2733 29.492 22.8113 28.9053 22.474C28.3186 22.1367 27.6513 21.968 26.9033 21.968H23.3613V29.778ZM35.6 30.086C35.644 29.1767 35.8787 28.3627 36.304 27.644C36.744 26.9253 37.3087 26.3607 37.998 25.95C38.702 25.5393 39.4793 25.334 40.33 25.334C41.0047 25.334 41.5253 25.4293 41.892 25.62C42.2587 25.8107 42.398 26.0893 42.31 26.456C42.2513 26.676 42.1487 26.8227 42.002 26.896C41.87 26.9693 41.7013 26.9987 41.496 26.984C41.3053 26.9693 41.0853 26.9547 40.836 26.94C40.0147 26.8667 39.2813 26.9547 38.636 27.204C38.0053 27.4387 37.4993 27.8053 37.118 28.304C36.7513 28.8027 36.568 29.3967 36.568 30.086H35.6ZM35.732 37.5C35.468 37.5 35.2627 37.4267 35.116 37.28C34.9693 37.1333 34.896 36.928 34.896 36.664V26.302C34.896 26.038 34.9693 25.8327 35.116 25.686C35.2627 25.5393 35.468 25.466 35.732 25.466C35.996 25.466 36.2013 25.5393 36.348 25.686C36.4947 25.8327 36.568 26.038 36.568 26.302V36.664C36.568 36.928 36.4947 37.1333 36.348 37.28C36.2013 37.4267 35.996 37.5 35.732 37.5ZM46.1822 37.5C45.9182 37.5 45.7055 37.4267 45.5442 37.28C45.3975 37.1187 45.3242 36.906 45.3242 36.642V26.324C45.3242 26.06 45.3975 25.8547 45.5442 25.708C45.7055 25.5467 45.9182 25.466 46.1822 25.466C46.4315 25.466 46.6295 25.5467 46.7762 25.708C46.9375 25.8547 47.0182 26.06 47.0182 26.324V36.642C47.0182 36.906 46.9375 37.1187 46.7762 37.28C46.6295 37.4267 46.4315 37.5 46.1822 37.5ZM46.1602 23.178C45.8375 23.178 45.5589 23.0607 45.3242 22.826C45.0895 22.5913 44.9722 22.3053 44.9722 21.968C44.9722 21.6013 45.0895 21.3153 45.3242 21.11C45.5735 20.89 45.8595 20.78 46.1822 20.78C46.4902 20.78 46.7615 20.89 46.9962 21.11C47.2455 21.3153 47.3702 21.6013 47.3702 21.968C47.3702 22.3053 47.2529 22.5913 47.0182 22.826C46.7835 23.0607 46.4975 23.178 46.1602 23.178ZM55.5336 37.61C54.6682 37.61 53.8102 37.4633 52.9596 37.17C52.1089 36.8767 51.4196 36.4367 50.8916 35.85C50.7302 35.674 50.6642 35.476 50.6936 35.256C50.7229 35.036 50.8329 34.8453 51.0236 34.684C51.2289 34.5373 51.4416 34.4787 51.6616 34.508C51.8816 34.5373 52.0649 34.6327 52.2116 34.794C52.5636 35.2047 53.0256 35.52 53.5976 35.74C54.1842 35.96 54.8296 36.07 55.5336 36.07C56.6189 36.07 57.4036 35.8867 57.8876 35.52C58.3716 35.1387 58.6209 34.684 58.6356 34.156C58.6356 33.628 58.3862 33.1953 57.8876 32.858C57.3889 32.506 56.5676 32.2347 55.4236 32.044C53.9422 31.8093 52.8569 31.3987 52.1676 30.812C51.4782 30.2253 51.1336 29.5287 51.1336 28.722C51.1336 27.974 51.3316 27.3507 51.7276 26.852C52.1236 26.3533 52.6516 25.9793 53.3116 25.73C53.9716 25.4807 54.6976 25.356 55.4896 25.356C56.4722 25.356 57.3156 25.5247 58.0196 25.862C58.7382 26.1993 59.3176 26.654 59.7576 27.226C59.9042 27.4167 59.9629 27.6147 59.9336 27.82C59.9042 28.0253 59.7869 28.194 59.5816 28.326C59.4056 28.4287 59.2002 28.4653 58.9656 28.436C58.7456 28.392 58.5549 28.282 58.3936 28.106C58.0269 27.6807 57.6016 27.3727 57.1176 27.182C56.6336 26.9767 56.0762 26.874 55.4456 26.874C54.6389 26.874 53.9936 27.0427 53.5096 27.38C53.0256 27.7027 52.7836 28.1133 52.7836 28.612C52.7836 28.9493 52.8716 29.2427 53.0476 29.492C53.2382 29.7413 53.5536 29.9613 53.9936 30.152C54.4482 30.3427 55.0789 30.504 55.8856 30.636C56.9856 30.812 57.8509 31.076 58.4816 31.428C59.1269 31.7653 59.5816 32.1687 59.8456 32.638C60.1242 33.0927 60.2636 33.5913 60.2636 34.134C60.2636 34.8233 60.0582 35.432 59.6476 35.96C59.2516 36.4733 58.6942 36.8767 57.9756 37.17C57.2716 37.4633 56.4576 37.61 55.5336 37.61ZM79.4489 37.5C79.1996 37.5 78.9943 37.4267 78.8329 37.28C78.6716 37.1187 78.5909 36.9133 78.5909 36.664V30.328C78.5909 29.2867 78.3196 28.4653 77.7769 27.864C77.2343 27.248 76.5376 26.94 75.6869 26.94C74.7776 26.94 74.0296 27.248 73.4429 27.864C72.8709 28.4653 72.5923 29.272 72.6069 30.284H71.0889C71.1036 29.3013 71.3163 28.436 71.7269 27.688C72.1376 26.94 72.7023 26.3607 73.4209 25.95C74.1396 25.5393 74.9536 25.334 75.8629 25.334C76.7283 25.334 77.4909 25.5393 78.1509 25.95C78.8256 26.3607 79.3463 26.94 79.7129 27.688C80.0943 28.436 80.2849 29.316 80.2849 30.328V36.664C80.2849 36.9133 80.2043 37.1187 80.0429 37.28C79.8963 37.4267 79.6983 37.5 79.4489 37.5ZM64.0489 37.5C63.7849 37.5 63.5723 37.4267 63.4109 37.28C63.2643 37.1187 63.1909 36.9133 63.1909 36.664V26.324C63.1909 26.0747 63.2643 25.8693 63.4109 25.708C63.5723 25.5467 63.7849 25.466 64.0489 25.466C64.2983 25.466 64.4963 25.5467 64.6429 25.708C64.8043 25.8693 64.8849 26.0747 64.8849 26.324V36.664C64.8849 36.9133 64.8043 37.1187 64.6429 37.28C64.4963 37.4267 64.2983 37.5 64.0489 37.5ZM71.7709 37.5C71.5216 37.5 71.3163 37.4267 71.1549 37.28C70.9936 37.1187 70.9129 36.9133 70.9129 36.664V30.328C70.9129 29.2867 70.6416 28.4653 70.0989 27.864C69.5563 27.248 68.8596 26.94 68.0089 26.94C67.0996 26.94 66.3516 27.2407 65.7649 27.842C65.1783 28.4287 64.8849 29.1987 64.8849 30.152H63.6749C63.7043 29.2133 63.9096 28.3847 64.2909 27.666C64.6869 26.9327 65.2223 26.3607 65.8969 25.95C66.5716 25.5393 67.3343 25.334 68.1849 25.334C69.0503 25.334 69.8129 25.5393 70.4729 25.95C71.1476 26.3607 71.6683 26.94 72.0349 27.688C72.4163 28.436 72.6069 29.316 72.6069 30.328V36.664C72.6069 36.9133 72.5263 37.1187 72.3649 37.28C72.2183 37.4267 72.0203 37.5 71.7709 37.5Z" fill="white"/>
<path opacity="0.36" d="M25.3791 48.5613C25.2124 48.5613 25.0924 48.4779 25.0191 48.3113L22.0491 41.3613C21.9757 41.1746 21.9691 41.0279 22.0291 40.9213C22.0957 40.8079 22.2091 40.7513 22.3691 40.7513C22.5357 40.7513 22.6557 40.8346 22.7291 41.0013L25.4891 47.6013H25.2691L28.0191 41.0213C28.0591 40.9213 28.1091 40.8513 28.1691 40.8113C28.2291 40.7713 28.3091 40.7513 28.4091 40.7513C28.5624 40.7513 28.6657 40.8113 28.7191 40.9313C28.7724 41.0446 28.7691 41.1746 28.7091 41.3213L25.7291 48.3113C25.6891 48.4046 25.6391 48.4713 25.5791 48.5113C25.5191 48.5446 25.4524 48.5613 25.3791 48.5613ZM31.2238 48.6113C30.6838 48.6113 30.2038 48.4946 29.7838 48.2613C29.3704 48.0213 29.0437 47.6913 28.8038 47.2713C28.5704 46.8513 28.4538 46.3713 28.4538 45.8313C28.4538 45.2846 28.5638 44.8046 28.7838 44.3913C29.0104 43.9713 29.3204 43.6413 29.7138 43.4013C30.1071 43.1613 30.5604 43.0413 31.0738 43.0413C31.5804 43.0413 32.0204 43.1579 32.3938 43.3913C32.7738 43.6179 33.0671 43.9346 33.2738 44.3413C33.4804 44.7479 33.5838 45.2113 33.5838 45.7313C33.5838 45.8379 33.5504 45.9246 33.4838 45.9913C33.4171 46.0513 33.3304 46.0813 33.2238 46.0813H28.9738V45.4413H33.3038L32.8738 45.7513C32.8804 45.3646 32.8104 45.0179 32.6638 44.7113C32.5171 44.4046 32.3071 44.1646 32.0338 43.9913C31.7671 43.8179 31.4471 43.7313 31.0738 43.7313C30.6938 43.7313 30.3604 43.8213 30.0738 44.0013C29.7871 44.1813 29.5638 44.4313 29.4038 44.7513C29.2504 45.0646 29.1738 45.4246 29.1738 45.8313C29.1738 46.2379 29.2604 46.5979 29.4338 46.9113C29.6138 47.2246 29.8571 47.4713 30.1638 47.6513C30.4704 47.8313 30.8238 47.9213 31.2238 47.9213C31.4638 47.9213 31.7038 47.8813 31.9438 47.8013C32.1904 47.7146 32.3871 47.6079 32.5338 47.4813C32.6071 47.4213 32.6904 47.3913 32.7838 47.3913C32.8771 47.3846 32.9571 47.4079 33.0238 47.4613C33.1104 47.5413 33.1538 47.6279 33.1538 47.7213C33.1604 47.8146 33.1238 47.8946 33.0438 47.9613C32.8238 48.1479 32.5438 48.3046 32.2038 48.4313C31.8638 48.5513 31.5371 48.6113 31.2238 48.6113ZM35.2063 45.1913C35.2263 44.7779 35.333 44.4079 35.5263 44.0813C35.7263 43.7546 35.983 43.4979 36.2963 43.3113C36.6163 43.1246 36.9697 43.0313 37.3563 43.0313C37.663 43.0313 37.8997 43.0746 38.0663 43.1613C38.233 43.2479 38.2963 43.3746 38.2563 43.5413C38.2297 43.6413 38.183 43.7079 38.1163 43.7413C38.0563 43.7746 37.9797 43.7879 37.8863 43.7813C37.7997 43.7746 37.6997 43.7679 37.5863 43.7613C37.213 43.7279 36.8797 43.7679 36.5863 43.8813C36.2997 43.9879 36.0697 44.1546 35.8963 44.3813C35.7297 44.6079 35.6463 44.8779 35.6463 45.1913H35.2063ZM35.2663 48.5613C35.1463 48.5613 35.053 48.5279 34.9863 48.4613C34.9197 48.3946 34.8863 48.3013 34.8863 48.1813V43.4713C34.8863 43.3513 34.9197 43.2579 34.9863 43.1913C35.053 43.1246 35.1463 43.0913 35.2663 43.0913C35.3863 43.0913 35.4797 43.1246 35.5463 43.1913C35.613 43.2579 35.6463 43.3513 35.6463 43.4713V48.1813C35.6463 48.3013 35.613 48.3946 35.5463 48.4613C35.4797 48.5279 35.3863 48.5613 35.2663 48.5613ZM41.3764 48.6113C40.9831 48.6113 40.5931 48.5446 40.2064 48.4113C39.8197 48.2779 39.5064 48.0779 39.2664 47.8113C39.1931 47.7313 39.1631 47.6413 39.1764 47.5413C39.1897 47.4413 39.2397 47.3546 39.3264 47.2813C39.4197 47.2146 39.5164 47.1879 39.6164 47.2013C39.7164 47.2146 39.7997 47.2579 39.8664 47.3313C40.0264 47.5179 40.2364 47.6613 40.4964 47.7613C40.7631 47.8613 41.0564 47.9113 41.3764 47.9113C41.8697 47.9113 42.2264 47.8279 42.4464 47.6613C42.6664 47.4879 42.7797 47.2813 42.7864 47.0413C42.7864 46.8013 42.6731 46.6046 42.4464 46.4513C42.2197 46.2913 41.8464 46.1679 41.3264 46.0813C40.6531 45.9746 40.1597 45.7879 39.8464 45.5213C39.5331 45.2546 39.3764 44.9379 39.3764 44.5713C39.3764 44.2313 39.4664 43.9479 39.6464 43.7213C39.8264 43.4946 40.0664 43.3246 40.3664 43.2113C40.6664 43.0979 40.9964 43.0413 41.3564 43.0413C41.8031 43.0413 42.1864 43.1179 42.5064 43.2713C42.8331 43.4246 43.0964 43.6313 43.2964 43.8913C43.3631 43.9779 43.3897 44.0679 43.3764 44.1613C43.3631 44.2546 43.3097 44.3313 43.2164 44.3913C43.1364 44.4379 43.0431 44.4546 42.9364 44.4413C42.8364 44.4213 42.7497 44.3713 42.6764 44.2913C42.5097 44.0979 42.3164 43.9579 42.0964 43.8713C41.8764 43.7779 41.6231 43.7313 41.3364 43.7313C40.9697 43.7313 40.6764 43.8079 40.4564 43.9613C40.2364 44.1079 40.1264 44.2946 40.1264 44.5213C40.1264 44.6746 40.1664 44.8079 40.2464 44.9213C40.3331 45.0346 40.4764 45.1346 40.6764 45.2213C40.8831 45.3079 41.1697 45.3813 41.5364 45.4413C42.0364 45.5213 42.4297 45.6413 42.7164 45.8013C43.0097 45.9546 43.2164 46.1379 43.3364 46.3513C43.4631 46.5579 43.5264 46.7846 43.5264 47.0313C43.5264 47.3446 43.4331 47.6213 43.2464 47.8613C43.0664 48.0946 42.8131 48.2779 42.4864 48.4113C42.1664 48.5446 41.7964 48.6113 41.3764 48.6113ZM45.407 48.5613C45.287 48.5613 45.1904 48.5279 45.117 48.4613C45.0504 48.3879 45.017 48.2913 45.017 48.1713V43.4813C45.017 43.3613 45.0504 43.2679 45.117 43.2013C45.1904 43.1279 45.287 43.0913 45.407 43.0913C45.5204 43.0913 45.6104 43.1279 45.677 43.2013C45.7504 43.2679 45.787 43.3613 45.787 43.4813V48.1713C45.787 48.2913 45.7504 48.3879 45.677 48.4613C45.6104 48.5279 45.5204 48.5613 45.407 48.5613ZM45.397 42.0513C45.2504 42.0513 45.1237 41.9979 45.017 41.8913C44.9104 41.7846 44.857 41.6546 44.857 41.5013C44.857 41.3346 44.9104 41.2046 45.017 41.1113C45.1304 41.0113 45.2604 40.9613 45.407 40.9613C45.547 40.9613 45.6704 41.0113 45.777 41.1113C45.8904 41.2046 45.947 41.3346 45.947 41.5013C45.947 41.6546 45.8937 41.7846 45.787 41.8913C45.6804 41.9979 45.5504 42.0513 45.397 42.0513ZM50.2377 48.6113C49.7043 48.6113 49.2277 48.4913 48.8077 48.2513C48.3877 48.0113 48.0577 47.6813 47.8177 47.2613C47.5777 46.8413 47.4577 46.3646 47.4577 45.8313C47.4577 45.2913 47.5777 44.8113 47.8177 44.3913C48.0577 43.9713 48.3877 43.6413 48.8077 43.4013C49.2277 43.1613 49.7043 43.0413 50.2377 43.0413C50.771 43.0413 51.2443 43.1613 51.6577 43.4013C52.0777 43.6413 52.4077 43.9713 52.6477 44.3913C52.8877 44.8113 53.011 45.2913 53.0177 45.8313C53.0177 46.3646 52.8943 46.8413 52.6477 47.2613C52.4077 47.6813 52.0777 48.0113 51.6577 48.2513C51.2443 48.4913 50.771 48.6113 50.2377 48.6113ZM50.2377 47.9113C50.6243 47.9113 50.971 47.8213 51.2777 47.6413C51.5843 47.4613 51.8243 47.2146 51.9977 46.9013C52.171 46.5879 52.2577 46.2313 52.2577 45.8313C52.2577 45.4313 52.171 45.0746 51.9977 44.7613C51.8243 44.4413 51.5843 44.1913 51.2777 44.0113C50.971 43.8313 50.6243 43.7413 50.2377 43.7413C49.851 43.7413 49.5043 43.8313 49.1977 44.0113C48.891 44.1913 48.6477 44.4413 48.4677 44.7613C48.2943 45.0746 48.2077 45.4313 48.2077 45.8313C48.2077 46.2313 48.2943 46.5879 48.4677 46.9013C48.6477 47.2146 48.891 47.4613 49.1977 47.6413C49.5043 47.8213 49.851 47.9113 50.2377 47.9113ZM59.2052 48.5613C59.0919 48.5613 58.9986 48.5246 58.9252 48.4513C58.8519 48.3779 58.8152 48.2879 58.8152 48.1813V45.5813C58.8152 45.1679 58.7352 44.8279 58.5752 44.5613C58.4219 44.2946 58.2086 44.0946 57.9352 43.9613C57.6686 43.8279 57.3652 43.7613 57.0252 43.7613C56.6986 43.7613 56.4019 43.8246 56.1352 43.9513C55.8752 44.0779 55.6686 44.2513 55.5152 44.4713C55.3619 44.6913 55.2852 44.9413 55.2852 45.2213H54.7352C54.7486 44.8013 54.8619 44.4279 55.0752 44.1013C55.2886 43.7679 55.5719 43.5079 55.9252 43.3213C56.2786 43.1279 56.6719 43.0313 57.1052 43.0313C57.5786 43.0313 58.0019 43.1313 58.3752 43.3313C58.7486 43.5246 59.0419 43.8113 59.2552 44.1913C59.4752 44.5713 59.5852 45.0346 59.5852 45.5813V48.1813C59.5852 48.2879 59.5486 48.3779 59.4752 48.4513C59.4019 48.5246 59.3119 48.5613 59.2052 48.5613ZM54.9052 48.5613C54.7852 48.5613 54.6886 48.5279 54.6152 48.4613C54.5486 48.3879 54.5152 48.2946 54.5152 48.1813V43.4813C54.5152 43.3613 54.5486 43.2679 54.6152 43.2013C54.6886 43.1279 54.7852 43.0913 54.9052 43.0913C55.0186 43.0913 55.1086 43.1279 55.1752 43.2013C55.2486 43.2679 55.2852 43.3613 55.2852 43.4813V48.1813C55.2852 48.2946 55.2486 48.3879 55.1752 48.4613C55.1086 48.5279 55.0186 48.5613 54.9052 48.5613ZM65.7025 48.5613C65.5958 48.5613 65.5025 48.5246 65.4225 48.4513C65.3492 48.3779 65.3125 48.2846 65.3125 48.1713V41.6713L64.3125 42.0213C64.2392 42.0546 64.1725 42.0713 64.1125 42.0713C63.9992 42.0713 63.9058 42.0346 63.8325 41.9613C63.7592 41.8879 63.7225 41.7979 63.7225 41.6913C63.7225 41.6113 63.7392 41.5379 63.7725 41.4713C63.8125 41.4046 63.8792 41.3546 63.9725 41.3213L65.5125 40.7913C65.5458 40.7779 65.5792 40.7679 65.6125 40.7613C65.6525 40.7479 65.6858 40.7413 65.7125 40.7413C65.8258 40.7413 65.9158 40.7813 65.9825 40.8613C66.0558 40.9346 66.0925 41.0246 66.0925 41.1313V48.1713C66.0925 48.2846 66.0558 48.3779 65.9825 48.4513C65.9092 48.5246 65.8158 48.5613 65.7025 48.5613ZM68.1718 48.7213C68.0118 48.7213 67.8751 48.6646 67.7618 48.5513C67.6485 48.4379 67.5918 48.3013 67.5918 48.1413C67.5918 47.9746 67.6485 47.8346 67.7618 47.7213C67.8818 47.6079 68.0185 47.5513 68.1718 47.5513C68.3318 47.5513 68.4685 47.6113 68.5818 47.7313C68.6951 47.8446 68.7518 47.9813 68.7518 48.1413C68.7518 48.2946 68.6951 48.4313 68.5818 48.5513C68.4751 48.6646 68.3385 48.7213 68.1718 48.7213ZM71.6996 48.5613C71.2063 48.5613 70.7829 48.4046 70.4296 48.0913C70.0763 47.7779 69.8063 47.3313 69.6196 46.7513C69.4396 46.1646 69.3496 45.4613 69.3496 44.6413C69.3496 43.8346 69.4396 43.1379 69.6196 42.5513C69.8063 41.9646 70.0763 41.5146 70.4296 41.2013C70.7829 40.8879 71.2063 40.7313 71.6996 40.7313C72.2063 40.7313 72.6329 40.8913 72.9796 41.2113C73.3329 41.5246 73.5996 41.9746 73.7796 42.5613C73.9663 43.1479 74.0596 43.8413 74.0596 44.6413C74.0596 45.4546 73.9663 46.1546 73.7796 46.7413C73.5996 47.3213 73.3329 47.7713 72.9796 48.0913C72.6329 48.4046 72.2063 48.5613 71.6996 48.5613ZM71.6996 47.7813C72.0596 47.7813 72.3563 47.6479 72.5896 47.3813C72.8229 47.1079 72.9963 46.7346 73.1096 46.2613C73.2229 45.7879 73.2796 45.2479 73.2796 44.6413C73.2796 44.0413 73.2196 43.5079 73.0996 43.0413C72.9863 42.5679 72.8129 42.1946 72.5796 41.9213C72.3463 41.6479 72.0529 41.5113 71.6996 41.5113C71.3463 41.5113 71.0529 41.6479 70.8196 41.9213C70.5929 42.1879 70.4196 42.5579 70.2996 43.0313C70.1863 43.5046 70.1296 44.0413 70.1296 44.6413C70.1296 45.2546 70.1863 45.7979 70.2996 46.2713C70.4196 46.7379 70.5929 47.1079 70.8196 47.3813C71.0529 47.6479 71.3463 47.7813 71.6996 47.7813ZM75.2421 48.7213C75.0821 48.7213 74.9454 48.6646 74.8321 48.5513C74.7188 48.4379 74.6621 48.3013 74.6621 48.1413C74.6621 47.9746 74.7188 47.8346 74.8321 47.7213C74.9521 47.6079 75.0888 47.5513 75.2421 47.5513C75.4021 47.5513 75.5388 47.6113 75.6521 47.7313C75.7654 47.8446 75.8221 47.9813 75.8221 48.1413C75.8221 48.2946 75.7654 48.4313 75.6521 48.5513C75.5454 48.6646 75.4088 48.7213 75.2421 48.7213ZM78.7699 48.5613C78.2766 48.5613 77.8533 48.4046 77.4999 48.0913C77.1466 47.7779 76.8766 47.3313 76.6899 46.7513C76.5099 46.1646 76.4199 45.4613 76.4199 44.6413C76.4199 43.8346 76.5099 43.1379 76.6899 42.5513C76.8766 41.9646 77.1466 41.5146 77.4999 41.2013C77.8533 40.8879 78.2766 40.7313 78.7699 40.7313C79.2766 40.7313 79.7033 40.8913 80.0499 41.2113C80.4033 41.5246 80.6699 41.9746 80.8499 42.5613C81.0366 43.1479 81.1299 43.8413 81.1299 44.6413C81.1299 45.4546 81.0366 46.1546 80.8499 46.7413C80.6699 47.3213 80.4033 47.7713 80.0499 48.0913C79.7033 48.4046 79.2766 48.5613 78.7699 48.5613ZM78.7699 47.7813C79.1299 47.7813 79.4266 47.6479 79.6599 47.3813C79.8933 47.1079 80.0666 46.7346 80.1799 46.2613C80.2933 45.7879 80.3499 45.2479 80.3499 44.6413C80.3499 44.0413 80.2899 43.5079 80.1699 43.0413C80.0566 42.5679 79.8833 42.1946 79.6499 41.9213C79.4166 41.6479 79.1233 41.5113 78.7699 41.5113C78.4166 41.5113 78.1233 41.6479 77.8899 41.9213C77.6633 42.1879 77.4899 42.5579 77.3699 43.0313C77.2566 43.5046 77.1999 44.0413 77.1999 44.6413C77.1999 45.2546 77.2566 45.7979 77.3699 46.2713C77.4899 46.7379 77.6633 47.1079 77.8899 47.3813C78.1233 47.6479 78.4166 47.7813 78.7699 47.7813Z" fill="white"/>
<rect x="822" y="545" width="98" height="34" rx="5" fill="#141414"/>
<path d="M858.793 567C858.576 567 858.416 566.913 858.312 566.74C858.217 566.558 858.208 566.376 858.286 566.194L862.056 557.224C862.169 556.973 862.351 556.847 862.602 556.847C862.853 556.847 863.027 556.973 863.122 557.224L866.905 566.207C866.992 566.398 866.979 566.58 866.866 566.753C866.762 566.918 866.61 567 866.411 567C866.298 567 866.194 566.97 866.099 566.909C866.004 566.848 865.93 566.766 865.878 566.662L862.42 558.186H862.81L859.3 566.662C859.257 566.775 859.187 566.861 859.092 566.922C858.997 566.974 858.897 567 858.793 567ZM859.599 564.634L860.028 563.685H865.241L865.683 564.634H859.599ZM871.028 567C870.577 567 870.174 566.892 869.819 566.675C869.463 566.458 869.182 566.159 868.974 565.778C868.774 565.397 868.675 564.968 868.675 564.491V558.173C868.675 558.017 868.722 557.887 868.818 557.783C868.922 557.679 869.056 557.627 869.221 557.627C869.377 557.627 869.507 557.679 869.611 557.783C869.715 557.887 869.767 558.017 869.767 558.173V564.491C869.767 564.898 869.884 565.236 870.118 565.505C870.36 565.774 870.664 565.908 871.028 565.908H871.418C871.556 565.908 871.673 565.96 871.769 566.064C871.864 566.168 871.912 566.298 871.912 566.454C871.912 566.619 871.851 566.753 871.73 566.857C871.617 566.952 871.47 567 871.288 567H871.028ZM867.908 561.098C867.76 561.098 867.639 561.055 867.544 560.968C867.448 560.873 867.401 560.76 867.401 560.63C867.401 560.491 867.448 560.379 867.544 560.292C867.639 560.197 867.76 560.149 867.908 560.149H871.119C871.266 560.149 871.387 560.197 871.483 560.292C871.578 560.379 871.626 560.491 871.626 560.63C871.626 560.76 871.578 560.873 871.483 560.968C871.387 561.055 871.266 561.098 871.119 561.098H867.908ZM876.258 567C875.807 567 875.404 566.892 875.049 566.675C874.694 566.458 874.412 566.159 874.204 565.778C874.005 565.397 873.905 564.968 873.905 564.491V558.173C873.905 558.017 873.953 557.887 874.048 557.783C874.152 557.679 874.286 557.627 874.451 557.627C874.607 557.627 874.737 557.679 874.841 557.783C874.945 557.887 874.997 558.017 874.997 558.173V564.491C874.997 564.898 875.114 565.236 875.348 565.505C875.591 565.774 875.894 565.908 876.258 565.908H876.648C876.787 565.908 876.904 565.96 876.999 566.064C877.094 566.168 877.142 566.298 877.142 566.454C877.142 566.619 877.081 566.753 876.96 566.857C876.847 566.952 876.7 567 876.518 567H876.258ZM873.138 561.098C872.991 561.098 872.869 561.055 872.774 560.968C872.679 560.873 872.631 560.76 872.631 560.63C872.631 560.491 872.679 560.379 872.774 560.292C872.869 560.197 872.991 560.149 873.138 560.149H876.349C876.496 560.149 876.618 560.197 876.713 560.292C876.808 560.379 876.856 560.491 876.856 560.63C876.856 560.76 876.808 560.873 876.713 560.968C876.618 561.055 876.496 561.098 876.349 561.098H873.138ZM881.853 567.065C881.194 567.065 880.605 566.909 880.085 566.597C879.565 566.276 879.153 565.843 878.85 565.297C878.546 564.751 878.395 564.136 878.395 563.451C878.395 562.758 878.551 562.138 878.863 561.592C879.183 561.046 879.617 560.617 880.163 560.305C880.709 559.984 881.324 559.824 882.009 559.824C882.685 559.824 883.291 559.984 883.829 560.305C884.375 560.617 884.804 561.046 885.116 561.592C885.436 562.138 885.601 562.758 885.61 563.451L885.168 563.672C885.168 564.313 885.02 564.89 884.726 565.401C884.44 565.912 884.045 566.32 883.543 566.623C883.049 566.918 882.485 567.065 881.853 567.065ZM882.009 566.077C882.494 566.077 882.923 565.964 883.296 565.739C883.677 565.505 883.976 565.189 884.193 564.79C884.418 564.391 884.531 563.945 884.531 563.451C884.531 562.948 884.418 562.502 884.193 562.112C883.976 561.713 883.677 561.397 883.296 561.163C882.923 560.929 882.494 560.812 882.009 560.812C881.532 560.812 881.099 560.929 880.709 561.163C880.327 561.397 880.024 561.713 879.799 562.112C879.573 562.502 879.461 562.948 879.461 563.451C879.461 563.945 879.573 564.391 879.799 564.79C880.024 565.189 880.327 565.505 880.709 565.739C881.099 565.964 881.532 566.077 882.009 566.077ZM885.051 567C884.895 567 884.76 566.952 884.648 566.857C884.544 566.753 884.492 566.619 884.492 566.454V564.309L884.739 563.178L885.61 563.451V566.454C885.61 566.619 885.558 566.753 885.454 566.857C885.35 566.952 885.215 567 885.051 567ZM890.742 567.065C890.057 567.065 889.446 566.909 888.909 566.597C888.371 566.276 887.947 565.843 887.635 565.297C887.331 564.751 887.18 564.136 887.18 563.451C887.18 562.758 887.327 562.138 887.622 561.592C887.925 561.046 888.332 560.617 888.844 560.305C889.364 559.984 889.962 559.824 890.638 559.824C891.158 559.824 891.639 559.928 892.081 560.136C892.523 560.335 892.913 560.639 893.251 561.046C893.355 561.167 893.389 561.293 893.355 561.423C893.329 561.544 893.251 561.653 893.121 561.748C893.017 561.817 892.9 561.843 892.77 561.826C892.648 561.8 892.536 561.731 892.432 561.618C891.955 561.081 891.357 560.812 890.638 560.812C890.161 560.812 889.741 560.925 889.377 561.15C889.021 561.375 888.744 561.687 888.545 562.086C888.345 562.476 888.246 562.931 888.246 563.451C888.246 563.954 888.35 564.404 888.558 564.803C888.774 565.193 889.069 565.505 889.442 565.739C889.823 565.964 890.256 566.077 890.742 566.077C891.071 566.077 891.366 566.034 891.626 565.947C891.894 565.86 892.133 565.726 892.341 565.544C892.462 565.449 892.583 565.397 892.705 565.388C892.826 565.379 892.939 565.414 893.043 565.492C893.155 565.596 893.22 565.713 893.238 565.843C893.255 565.973 893.212 566.09 893.108 566.194C892.475 566.775 891.686 567.065 890.742 567.065ZM895.873 564.192C895.699 564.192 895.561 564.14 895.457 564.036C895.361 563.932 895.314 563.802 895.314 563.646V557.406C895.314 557.233 895.361 557.098 895.457 557.003C895.561 556.899 895.699 556.847 895.873 556.847C896.037 556.847 896.167 556.899 896.263 557.003C896.367 557.098 896.419 557.233 896.419 557.406V563.646C896.419 563.802 896.367 563.932 896.263 564.036C896.167 564.14 896.037 564.192 895.873 564.192ZM901.385 567C901.22 567 901.086 566.948 900.982 566.844C900.878 566.74 900.826 566.61 900.826 566.454V563.139C900.826 562.61 900.726 562.181 900.527 561.852C900.336 561.514 900.072 561.263 899.734 561.098C899.396 560.925 899.01 560.838 898.577 560.838C898.169 560.838 897.801 560.92 897.472 561.085C897.151 561.241 896.895 561.458 896.705 561.735C896.514 562.004 896.419 562.316 896.419 562.671H895.665C895.682 562.125 895.825 561.64 896.094 561.215C896.371 560.782 896.739 560.439 897.199 560.188C897.658 559.937 898.169 559.811 898.733 559.811C899.339 559.811 899.881 559.941 900.358 560.201C900.843 560.452 901.224 560.825 901.502 561.319C901.788 561.813 901.931 562.42 901.931 563.139V566.454C901.931 566.61 901.879 566.74 901.775 566.844C901.671 566.948 901.541 567 901.385 567ZM895.873 567C895.699 567 895.561 566.952 895.457 566.857C895.361 566.753 895.314 566.619 895.314 566.454V560.448C895.314 560.275 895.361 560.14 895.457 560.045C895.561 559.941 895.699 559.889 895.873 559.889C896.037 559.889 896.167 559.941 896.263 560.045C896.367 560.14 896.419 560.275 896.419 560.448V566.454C896.419 566.619 896.367 566.753 896.263 566.857C896.167 566.952 896.037 567 895.873 567Z" fill="white"/>
<g clip-path="url(#clip0_1_2)">
<path d="M843 562.5C843.215 562.787 843.489 563.025 843.803 563.196C844.118 563.368 844.466 563.471 844.823 563.496C845.181 563.522 845.54 563.47 845.876 563.345C846.212 563.22 846.517 563.024 846.77 562.77L848.27 561.27C848.725 560.798 848.977 560.167 848.972 559.511C848.966 558.856 848.703 558.229 848.24 557.765C847.776 557.302 847.149 557.039 846.494 557.033C845.838 557.028 845.207 557.28 844.735 557.735L843.875 558.59" stroke="white" stroke-linecap="round" stroke-linejoin="round"/>
<path d="M845 561.5C844.785 561.213 844.511 560.975 844.197 560.804C843.882 560.632 843.534 560.529 843.177 560.504C842.819 560.478 842.46 560.53 842.124 560.655C841.788 560.78 841.483 560.976 841.23 561.23L839.73 562.73C839.275 563.201 839.023 563.833 839.028 564.488C839.034 565.144 839.297 565.771 839.76 566.235C840.224 566.698 840.851 566.961 841.506 566.967C842.162 566.972 842.793 566.72 843.265 566.265L844.12 565.41" stroke="white" stroke-linecap="round" stroke-linejoin="round"/>
</g>
<rect x="335" y="545" width="98" height="34" rx="5" fill="#141414"/>
<path d="M380.446 567.13C379.891 567.13 379.371 567.048 378.886 566.883C378.409 566.718 377.993 566.489 377.638 566.194C377.283 565.891 377.018 565.54 376.845 565.141C376.767 564.994 376.763 564.855 376.832 564.725C376.91 564.595 377.036 564.508 377.209 564.465C377.339 564.43 377.469 564.448 377.599 564.517C377.729 564.578 377.824 564.677 377.885 564.816C378.015 565.059 378.201 565.28 378.444 565.479C378.695 565.67 378.99 565.821 379.328 565.934C379.675 566.038 380.047 566.09 380.446 566.09C380.897 566.09 381.3 566.016 381.655 565.869C382.01 565.722 382.292 565.509 382.5 565.232C382.708 564.955 382.812 564.617 382.812 564.218C382.812 563.715 382.621 563.278 382.24 562.905C381.859 562.524 381.252 562.285 380.42 562.19C379.389 562.069 378.578 561.752 377.989 561.241C377.408 560.73 377.118 560.097 377.118 559.343C377.118 558.806 377.265 558.342 377.56 557.952C377.855 557.553 378.258 557.25 378.769 557.042C379.28 556.825 379.861 556.717 380.511 556.717C381.005 556.717 381.447 556.795 381.837 556.951C382.227 557.098 382.565 557.298 382.851 557.549C383.146 557.8 383.388 558.082 383.579 558.394C383.683 558.55 383.718 558.702 383.683 558.849C383.657 558.988 383.579 559.096 383.449 559.174C383.31 559.243 383.163 559.256 383.007 559.213C382.86 559.161 382.747 559.066 382.669 558.927C382.539 558.719 382.374 558.528 382.175 558.355C381.984 558.173 381.75 558.03 381.473 557.926C381.196 557.822 380.866 557.766 380.485 557.757C379.818 557.757 379.272 557.896 378.847 558.173C378.422 558.45 378.21 558.862 378.21 559.408C378.21 559.685 378.284 559.95 378.431 560.201C378.587 560.444 378.843 560.652 379.198 560.825C379.562 560.998 380.056 561.128 380.68 561.215C381.755 561.354 382.561 561.679 383.098 562.19C383.635 562.701 383.904 563.373 383.904 564.205C383.904 564.682 383.813 565.102 383.631 565.466C383.458 565.83 383.211 566.138 382.89 566.389C382.569 566.632 382.197 566.818 381.772 566.948C381.356 567.069 380.914 567.13 380.446 567.13ZM388.96 567.065C388.301 567.065 387.712 566.909 387.192 566.597C386.672 566.276 386.26 565.843 385.957 565.297C385.654 564.751 385.502 564.136 385.502 563.451C385.502 562.758 385.658 562.138 385.97 561.592C386.291 561.046 386.724 560.617 387.27 560.305C387.816 559.984 388.431 559.824 389.116 559.824C389.792 559.824 390.399 559.984 390.936 560.305C391.482 560.617 391.911 561.046 392.223 561.592C392.544 562.138 392.708 562.758 392.717 563.451L392.275 563.672C392.275 564.313 392.128 564.89 391.833 565.401C391.547 565.912 391.153 566.32 390.65 566.623C390.156 566.918 389.593 567.065 388.96 567.065ZM389.116 566.077C389.601 566.077 390.03 565.964 390.403 565.739C390.784 565.505 391.083 565.189 391.3 564.79C391.525 564.391 391.638 563.945 391.638 563.451C391.638 562.948 391.525 562.502 391.3 562.112C391.083 561.713 390.784 561.397 390.403 561.163C390.03 560.929 389.601 560.812 389.116 560.812C388.639 560.812 388.206 560.929 387.816 561.163C387.435 561.397 387.131 561.713 386.906 562.112C386.681 562.502 386.568 562.948 386.568 563.451C386.568 563.945 386.681 564.391 386.906 564.79C387.131 565.189 387.435 565.505 387.816 565.739C388.206 565.964 388.639 566.077 389.116 566.077ZM392.158 567C392.002 567 391.868 566.952 391.755 566.857C391.651 566.753 391.599 566.619 391.599 566.454V564.309L391.846 563.178L392.717 563.451V566.454C392.717 566.619 392.665 566.753 392.561 566.857C392.457 566.952 392.323 567 392.158 567ZM396.689 567C396.463 567 396.294 566.879 396.182 566.636L393.335 560.604C393.274 560.483 393.265 560.361 393.309 560.24C393.361 560.119 393.456 560.023 393.595 559.954C393.725 559.885 393.85 559.876 393.972 559.928C394.102 559.971 394.201 560.054 394.271 560.175L396.975 566.038H396.416L399.094 560.175C399.146 560.045 399.241 559.958 399.38 559.915C399.518 559.872 399.653 559.88 399.783 559.941C399.921 560.01 400.012 560.11 400.056 560.24C400.099 560.361 400.095 560.478 400.043 560.591L397.222 566.636C397.109 566.879 396.931 567 396.689 567ZM404.44 567.065C403.729 567.065 403.101 566.913 402.555 566.61C402.009 566.298 401.58 565.869 401.268 565.323C400.956 564.777 400.8 564.153 400.8 563.451C400.8 562.74 400.947 562.116 401.242 561.579C401.537 561.033 401.94 560.604 402.451 560.292C402.971 559.98 403.569 559.824 404.245 559.824C404.904 559.824 405.476 559.976 405.961 560.279C406.455 560.574 406.832 560.985 407.092 561.514C407.361 562.043 407.495 562.645 407.495 563.321C407.495 563.468 407.447 563.59 407.352 563.685C407.257 563.772 407.135 563.815 406.988 563.815H401.554V562.918H407.053L406.494 563.308C406.503 562.831 406.416 562.402 406.234 562.021C406.052 561.64 405.792 561.341 405.454 561.124C405.116 560.907 404.713 560.799 404.245 560.799C403.751 560.799 403.318 560.912 402.945 561.137C402.581 561.362 402.299 561.679 402.1 562.086C401.909 562.485 401.814 562.94 401.814 563.451C401.814 563.962 401.927 564.417 402.152 564.816C402.377 565.215 402.685 565.527 403.075 565.752C403.474 565.977 403.929 566.09 404.44 566.09C404.735 566.09 405.034 566.038 405.337 565.934C405.649 565.83 405.896 565.7 406.078 565.544C406.182 565.466 406.299 565.427 406.429 565.427C406.568 565.418 406.68 565.453 406.767 565.531C406.897 565.644 406.962 565.765 406.962 565.895C406.971 566.025 406.914 566.138 406.793 566.233C406.507 566.476 406.143 566.675 405.701 566.831C405.259 566.987 404.839 567.065 404.44 567.065Z" fill="white"/>
<path d="M358 558.133C358 557.387 358 557.013 358.125 556.728C358.234 556.477 358.409 556.273 358.624 556.145C358.868 556 359.189 556 359.829 556H364.171C364.811 556 365.132 556 365.376 556.145C365.591 556.273 365.766 556.477 365.875 556.728C366 557.013 366 557.387 366 558.133V568L362 564.667L358 568V558.133Z" stroke="white" stroke-linejoin="round"/>
<rect x="11" y="545" width="98" height="34" rx="5" fill="#141414"/>
<path d="M34.0786 560.412C35.3071 561.104 35.3071 562.896 34.0786 563.588L26.6612 567.769C25.4673 568.442 24 567.566 24 566.18V557.82C24 556.434 25.4673 555.558 26.6612 556.231L34.0786 560.412Z" stroke="white"/>
<path d="M44.859 567C44.6943 567 44.56 566.948 44.456 566.844C44.352 566.74 44.3 566.606 44.3 566.441V557.406C44.3 557.241 44.352 557.107 44.456 557.003C44.56 556.899 44.6943 556.847 44.859 556.847H50.891C51.047 556.847 51.177 556.899 51.281 557.003C51.385 557.098 51.437 557.224 51.437 557.38C51.437 557.527 51.385 557.653 51.281 557.757C51.177 557.852 51.047 557.9 50.891 557.9H45.418V561.358H49.383C49.5477 561.358 49.682 561.41 49.786 561.514C49.89 561.618 49.942 561.744 49.942 561.891C49.942 562.047 49.89 562.177 49.786 562.281C49.682 562.376 49.5477 562.424 49.383 562.424H45.418V565.947H50.891C51.047 565.947 51.177 565.999 51.281 566.103C51.385 566.198 51.437 566.32 51.437 566.467C51.437 566.623 51.385 566.753 51.281 566.857C51.177 566.952 51.047 567 50.891 567H44.859ZM57.7818 567C57.6778 567 57.5911 566.987 57.5218 566.961C57.4525 566.926 57.3831 566.866 57.3138 566.779L55.0648 563.958L54.6488 563.581L52.3868 560.76C52.2828 560.639 52.2308 560.513 52.2308 560.383C52.2308 560.253 52.2741 560.14 52.3608 560.045C52.4475 559.941 52.5688 559.889 52.7248 559.889C52.8895 559.889 53.0281 559.95 53.1408 560.071L55.3378 562.814L55.6758 563.113L58.1068 566.155C58.2281 566.294 58.2801 566.432 58.2628 566.571C58.2541 566.701 58.1978 566.805 58.0938 566.883C57.9985 566.961 57.8945 567 57.7818 567ZM52.6858 567C52.5385 567 52.4171 566.952 52.3218 566.857C52.2351 566.762 52.1918 566.649 52.1918 566.519C52.1918 566.389 52.2438 566.259 52.3478 566.129L54.6748 563.217L55.2858 564.036L53.0758 566.831C52.9805 566.944 52.8505 567 52.6858 567ZM55.7798 563.633L55.0648 562.944L57.2618 560.123C57.3225 560.036 57.3918 559.976 57.4698 559.941C57.5478 559.906 57.6258 559.889 57.7038 559.889C57.8685 559.889 57.9898 559.941 58.0678 560.045C58.1545 560.14 58.1935 560.257 58.1848 560.396C58.1848 560.535 58.1371 560.665 58.0418 560.786L55.7798 563.633ZM62.5785 567.065C61.8678 567.065 61.2395 566.913 60.6935 566.61C60.1475 566.298 59.7185 565.869 59.4065 565.323C59.0945 564.777 58.9385 564.153 58.9385 563.451C58.9385 562.74 59.0858 562.116 59.3805 561.579C59.6752 561.033 60.0782 560.604 60.5895 560.292C61.1095 559.98 61.7075 559.824 62.3835 559.824C63.0422 559.824 63.6142 559.976 64.0995 560.279C64.5935 560.574 64.9705 560.985 65.2305 561.514C65.4992 562.043 65.6335 562.645 65.6335 563.321C65.6335 563.468 65.5858 563.59 65.4905 563.685C65.3952 563.772 65.2738 563.815 65.1265 563.815H59.6925V562.918H65.1915L64.6325 563.308C64.6412 562.831 64.5545 562.402 64.3725 562.021C64.1905 561.64 63.9305 561.341 63.5925 561.124C63.2545 560.907 62.8515 560.799 62.3835 560.799C61.8895 560.799 61.4562 560.912 61.0835 561.137C60.7195 561.362 60.4378 561.679 60.2385 562.086C60.0478 562.485 59.9525 562.94 59.9525 563.451C59.9525 563.962 60.0652 564.417 60.2905 564.816C60.5158 565.215 60.8235 565.527 61.2135 565.752C61.6122 565.977 62.0672 566.09 62.5785 566.09C62.8732 566.09 63.1722 566.038 63.4755 565.934C63.7875 565.83 64.0345 565.7 64.2165 565.544C64.3205 565.466 64.4375 565.427 64.5675 565.427C64.7062 565.418 64.8188 565.453 64.9055 565.531C65.0355 565.644 65.1005 565.765 65.1005 565.895C65.1092 566.025 65.0528 566.138 64.9315 566.233C64.6455 566.476 64.2815 566.675 63.8395 566.831C63.3975 566.987 62.9772 567.065 62.5785 567.065ZM70.2573 567.065C69.5727 567.065 68.9617 566.909 68.4243 566.597C67.887 566.276 67.4623 565.843 67.1503 565.297C66.847 564.751 66.6953 564.136 66.6953 563.451C66.6953 562.758 66.8427 562.138 67.1373 561.592C67.4407 561.046 67.848 560.617 68.3593 560.305C68.8793 559.984 69.4773 559.824 70.1533 559.824C70.6733 559.824 71.1543 559.928 71.5963 560.136C72.0383 560.335 72.4283 560.639 72.7663 561.046C72.8703 561.167 72.905 561.293 72.8703 561.423C72.8443 561.544 72.7663 561.653 72.6363 561.748C72.5323 561.817 72.4153 561.843 72.2853 561.826C72.164 561.8 72.0513 561.731 71.9473 561.618C71.4707 561.081 70.8727 560.812 70.1533 560.812C69.6767 560.812 69.2563 560.925 68.8923 561.15C68.537 561.375 68.2597 561.687 68.0603 562.086C67.861 562.476 67.7613 562.931 67.7613 563.451C67.7613 563.954 67.8653 564.404 68.0733 564.803C68.29 565.193 68.5847 565.505 68.9573 565.739C69.3387 565.964 69.772 566.077 70.2573 566.077C70.5867 566.077 70.8813 566.034 71.1413 565.947C71.41 565.86 71.6483 565.726 71.8563 565.544C71.9777 565.449 72.099 565.397 72.2203 565.388C72.3417 565.379 72.4543 565.414 72.5583 565.492C72.671 565.596 72.736 565.713 72.7533 565.843C72.7707 565.973 72.7273 566.09 72.6233 566.194C71.9907 566.775 71.202 567.065 70.2573 567.065ZM77.8972 567.078C77.2818 567.078 76.7315 566.952 76.2462 566.701C75.7695 566.441 75.3925 566.064 75.1152 565.57C74.8378 565.076 74.6992 564.469 74.6992 563.75V560.435C74.6992 560.279 74.7512 560.149 74.8552 560.045C74.9592 559.941 75.0892 559.889 75.2452 559.889C75.4012 559.889 75.5312 559.941 75.6352 560.045C75.7392 560.149 75.7912 560.279 75.7912 560.435V563.75C75.7912 564.279 75.8908 564.712 76.0902 565.05C76.2895 565.379 76.5582 565.631 76.8962 565.804C77.2342 565.969 77.6155 566.051 78.0402 566.051C78.4475 566.051 78.8158 565.973 79.1452 565.817C79.4745 565.652 79.7345 565.436 79.9252 565.167C80.1158 564.89 80.2112 564.573 80.2112 564.218H80.9522C80.9348 564.764 80.7918 565.254 80.5232 565.687C80.2545 566.112 79.8905 566.45 79.4312 566.701C78.9718 566.952 78.4605 567.078 77.8972 567.078ZM80.7572 567C80.5925 567 80.4582 566.952 80.3542 566.857C80.2588 566.753 80.2112 566.614 80.2112 566.441V560.435C80.2112 560.27 80.2588 560.14 80.3542 560.045C80.4582 559.941 80.5925 559.889 80.7572 559.889C80.9218 559.889 81.0562 559.941 81.1602 560.045C81.2642 560.14 81.3162 560.27 81.3162 560.435V566.441C81.3162 566.614 81.2642 566.753 81.1602 566.857C81.0562 566.952 80.9218 567 80.7572 567ZM86.3694 567C85.9188 567 85.5158 566.892 85.1604 566.675C84.8051 566.458 84.5234 566.159 84.3154 565.778C84.1161 565.397 84.0164 564.968 84.0164 564.491V558.173C84.0164 558.017 84.0641 557.887 84.1594 557.783C84.2634 557.679 84.3978 557.627 84.5624 557.627C84.7184 557.627 84.8484 557.679 84.9524 557.783C85.0564 557.887 85.1084 558.017 85.1084 558.173V564.491C85.1084 564.898 85.2254 565.236 85.4594 565.505C85.7021 565.774 86.0054 565.908 86.3694 565.908H86.7594C86.8981 565.908 87.0151 565.96 87.1104 566.064C87.2058 566.168 87.2534 566.298 87.2534 566.454C87.2534 566.619 87.1928 566.753 87.0714 566.857C86.9588 566.952 86.8114 567 86.6294 567H86.3694ZM83.2494 561.098C83.1021 561.098 82.9808 561.055 82.8854 560.968C82.7901 560.873 82.7424 560.76 82.7424 560.63C82.7424 560.491 82.7901 560.379 82.8854 560.292C82.9808 560.197 83.1021 560.149 83.2494 560.149H86.4604C86.6078 560.149 86.7291 560.197 86.8244 560.292C86.9198 560.379 86.9674 560.491 86.9674 560.63C86.9674 560.76 86.9198 560.873 86.8244 560.968C86.7291 561.055 86.6078 561.098 86.4604 561.098H83.2494ZM92.1459 567.065C91.4352 567.065 90.8069 566.913 90.2609 566.61C89.7149 566.298 89.2859 565.869 88.9739 565.323C88.6619 564.777 88.5059 564.153 88.5059 563.451C88.5059 562.74 88.6532 562.116 88.9479 561.579C89.2426 561.033 89.6456 560.604 90.1569 560.292C90.6769 559.98 91.2749 559.824 91.9509 559.824C92.6096 559.824 93.1816 559.976 93.6669 560.279C94.1609 560.574 94.5379 560.985 94.7979 561.514C95.0666 562.043 95.2009 562.645 95.2009 563.321C95.2009 563.468 95.1532 563.59 95.0579 563.685C94.9626 563.772 94.8412 563.815 94.6939 563.815H89.2599V562.918H94.7589L94.1999 563.308C94.2086 562.831 94.1219 562.402 93.9399 562.021C93.7579 561.64 93.4979 561.341 93.1599 561.124C92.8219 560.907 92.4189 560.799 91.9509 560.799C91.4569 560.799 91.0236 560.912 90.6509 561.137C90.2869 561.362 90.0052 561.679 89.8059 562.086C89.6152 562.485 89.5199 562.94 89.5199 563.451C89.5199 563.962 89.6326 564.417 89.8579 564.816C90.0832 565.215 90.3909 565.527 90.7809 565.752C91.1796 565.977 91.6346 566.09 92.1459 566.09C92.4406 566.09 92.7396 566.038 93.0429 565.934C93.3549 565.83 93.6019 565.7 93.7839 565.544C93.8879 565.466 94.0049 565.427 94.1349 565.427C94.2736 565.418 94.3862 565.453 94.4729 565.531C94.6029 565.644 94.6679 565.765 94.6679 565.895C94.6766 566.025 94.6202 566.138 94.4989 566.233C94.2129 566.476 93.8489 566.675 93.4069 566.831C92.9649 566.987 92.5446 567.065 92.1459 567.065Z" fill="white"/>
<rect x="119" y="545" width="98" height="34" rx="5" fill="#141414"/>
<path d="M164.863 567.13C164.161 567.13 163.502 566.996 162.887 566.727C162.28 566.458 161.743 566.086 161.275 565.609C160.816 565.132 160.456 564.582 160.196 563.958C159.945 563.325 159.819 562.645 159.819 561.917C159.819 561.198 159.945 560.526 160.196 559.902C160.456 559.269 160.816 558.719 161.275 558.251C161.734 557.774 162.267 557.402 162.874 557.133C163.489 556.856 164.152 556.717 164.863 556.717C165.496 556.717 166.063 556.808 166.566 556.99C167.069 557.163 167.558 557.449 168.035 557.848C168.113 557.909 168.161 557.978 168.178 558.056C168.204 558.125 168.204 558.195 168.178 558.264C168.161 558.333 168.13 558.394 168.087 558.446C168.07 558.541 168.018 558.619 167.931 558.68C167.853 558.732 167.758 558.758 167.645 558.758C167.532 558.758 167.42 558.715 167.307 558.628C166.978 558.333 166.622 558.117 166.241 557.978C165.86 557.831 165.4 557.757 164.863 557.757C164.317 557.757 163.801 557.87 163.316 558.095C162.839 558.312 162.419 558.611 162.055 558.992C161.691 559.373 161.405 559.815 161.197 560.318C160.998 560.821 160.898 561.354 160.898 561.917C160.898 562.498 160.998 563.039 161.197 563.542C161.405 564.045 161.691 564.487 162.055 564.868C162.419 565.249 162.839 565.548 163.316 565.765C163.801 565.982 164.317 566.09 164.863 566.09C165.322 566.09 165.76 566.012 166.176 565.856C166.592 565.7 166.991 565.479 167.372 565.193C167.493 565.098 167.615 565.059 167.736 565.076C167.866 565.093 167.974 565.15 168.061 565.245C168.156 565.332 168.204 565.453 168.204 565.609C168.204 565.687 168.191 565.756 168.165 565.817C168.139 565.878 168.1 565.943 168.048 566.012C167.597 566.402 167.099 566.688 166.553 566.87C166.016 567.043 165.452 567.13 164.863 567.13ZM171.785 567C171.421 567 171.101 566.905 170.823 566.714C170.546 566.515 170.329 566.242 170.173 565.895C170.017 565.548 169.939 565.15 169.939 564.699V557.393C169.939 557.228 169.987 557.098 170.082 557.003C170.186 556.899 170.321 556.847 170.485 556.847C170.641 556.847 170.767 556.899 170.862 557.003C170.966 557.098 171.018 557.228 171.018 557.393V564.699C171.018 565.054 171.088 565.349 171.226 565.583C171.374 565.808 171.56 565.921 171.785 565.921H172.11C172.249 565.921 172.362 565.973 172.448 566.077C172.535 566.172 172.578 566.298 172.578 566.454C172.578 566.619 172.513 566.753 172.383 566.857C172.262 566.952 172.102 567 171.902 567H171.785ZM176.814 567.065C176.103 567.065 175.475 566.913 174.929 566.61C174.383 566.298 173.954 565.869 173.642 565.323C173.33 564.777 173.174 564.153 173.174 563.451C173.174 562.74 173.321 562.116 173.616 561.579C173.911 561.033 174.314 560.604 174.825 560.292C175.345 559.98 175.943 559.824 176.619 559.824C177.278 559.824 177.85 559.976 178.335 560.279C178.829 560.574 179.206 560.985 179.466 561.514C179.735 562.043 179.869 562.645 179.869 563.321C179.869 563.468 179.821 563.59 179.726 563.685C179.631 563.772 179.509 563.815 179.362 563.815H173.928V562.918H179.427L178.868 563.308C178.877 562.831 178.79 562.402 178.608 562.021C178.426 561.64 178.166 561.341 177.828 561.124C177.49 560.907 177.087 560.799 176.619 560.799C176.125 560.799 175.692 560.912 175.319 561.137C174.955 561.362 174.673 561.679 174.474 562.086C174.283 562.485 174.188 562.94 174.188 563.451C174.188 563.962 174.301 564.417 174.526 564.816C174.751 565.215 175.059 565.527 175.449 565.752C175.848 565.977 176.303 566.09 176.814 566.09C177.109 566.09 177.408 566.038 177.711 565.934C178.023 565.83 178.27 565.7 178.452 565.544C178.556 565.466 178.673 565.427 178.803 565.427C178.942 565.418 179.054 565.453 179.141 565.531C179.271 565.644 179.336 565.765 179.336 565.895C179.345 566.025 179.288 566.138 179.167 566.233C178.881 566.476 178.517 566.675 178.075 566.831C177.633 566.987 177.213 567.065 176.814 567.065ZM184.389 567.065C183.73 567.065 183.141 566.909 182.621 566.597C182.101 566.276 181.689 565.843 181.386 565.297C181.082 564.751 180.931 564.136 180.931 563.451C180.931 562.758 181.087 562.138 181.399 561.592C181.719 561.046 182.153 560.617 182.699 560.305C183.245 559.984 183.86 559.824 184.545 559.824C185.221 559.824 185.827 559.984 186.365 560.305C186.911 560.617 187.34 561.046 187.652 561.592C187.972 562.138 188.137 562.758 188.146 563.451L187.704 563.672C187.704 564.313 187.556 564.89 187.262 565.401C186.976 565.912 186.581 566.32 186.079 566.623C185.585 566.918 185.021 567.065 184.389 567.065ZM184.545 566.077C185.03 566.077 185.459 565.964 185.832 565.739C186.213 565.505 186.512 565.189 186.729 564.79C186.954 564.391 187.067 563.945 187.067 563.451C187.067 562.948 186.954 562.502 186.729 562.112C186.512 561.713 186.213 561.397 185.832 561.163C185.459 560.929 185.03 560.812 184.545 560.812C184.068 560.812 183.635 560.929 183.245 561.163C182.863 561.397 182.56 561.713 182.335 562.112C182.109 562.502 181.997 562.948 181.997 563.451C181.997 563.945 182.109 564.391 182.335 564.79C182.56 565.189 182.863 565.505 183.245 565.739C183.635 565.964 184.068 566.077 184.545 566.077ZM187.587 567C187.431 567 187.296 566.952 187.184 566.857C187.08 566.753 187.028 566.619 187.028 566.454V564.309L187.275 563.178L188.146 563.451V566.454C188.146 566.619 188.094 566.753 187.99 566.857C187.886 566.952 187.751 567 187.587 567ZM190.574 562.593C190.591 562.064 190.726 561.592 190.977 561.176C191.237 560.751 191.575 560.418 191.991 560.175C192.416 559.932 192.879 559.811 193.382 559.811C193.824 559.811 194.158 559.876 194.383 560.006C194.617 560.136 194.704 560.314 194.643 560.539C194.617 560.66 194.561 560.747 194.474 560.799C194.396 560.851 194.301 560.877 194.188 560.877C194.084 560.877 193.963 560.868 193.824 560.851C193.313 560.79 192.858 560.825 192.459 560.955C192.069 561.076 191.757 561.28 191.523 561.566C191.289 561.852 191.172 562.194 191.172 562.593H190.574ZM190.639 567C190.466 567 190.331 566.952 190.236 566.857C190.141 566.762 190.093 566.627 190.093 566.454V560.435C190.093 560.262 190.141 560.127 190.236 560.032C190.331 559.937 190.466 559.889 190.639 559.889C190.812 559.889 190.942 559.937 191.029 560.032C191.124 560.127 191.172 560.262 191.172 560.435V566.454C191.172 566.627 191.124 566.762 191.029 566.857C190.942 566.952 190.812 567 190.639 567Z" fill="white"/>
<path d="M139.4 557.6C139.179 557.6 139 557.779 139 558C139 558.221 139.179 558.4 139.4 558.4V557.6ZM150.6 558.4C150.821 558.4 151 558.221 151 558C151 557.779 150.821 557.6 150.6 557.6V558.4ZM139.4 558.4H150.6V557.6H139.4V558.4Z" fill="white"/>
<path d="M142.6 558C142.6 558.221 142.779 558.4 143 558.4C143.221 558.4 143.4 558.221 143.4 558H142.6ZM146.6 558C146.6 558.221 146.779 558.4 147 558.4C147.221 558.4 147.4 558.221 147.4 558H146.6ZM146.2 556H143.8V556.8H146.2V556ZM143.8 556C143.482 556 143.176 556.126 142.951 556.351L143.517 556.917C143.592 556.842 143.694 556.8 143.8 556.8V556ZM142.951 556.351C142.726 556.577 142.6 556.882 142.6 557.2H143.4C143.4 557.094 143.442 556.992 143.517 556.917L142.951 556.351ZM142.6 557.2V558H143.4V557.2H142.6ZM147.4 558V557.2H146.6V558H147.4ZM147.4 557.2C147.4 556.882 147.274 556.577 147.049 556.351L146.483 556.917C146.558 556.992 146.6 557.094 146.6 557.2H147.4ZM147.049 556.351C146.823 556.126 146.518 556 146.2 556V556.8C146.306 556.8 146.408 556.842 146.483 556.917L147.049 556.351Z" fill="white"/>
<path d="M143.4 564.8C143.4 565.021 143.579 565.2 143.8 565.2C144.021 565.2 144.2 565.021 144.2 564.8H143.4ZM144.2 560.8C144.2 560.579 144.021 560.4 143.8 560.4C143.579 560.4 143.4 560.579 143.4 560.8H144.2ZM144.2 564.8V560.8H143.4V564.8H144.2Z" fill="white"/>
<path d="M145.8 564.8C145.8 565.021 145.979 565.2 146.2 565.2C146.421 565.2 146.6 565.021 146.6 564.8H145.8ZM146.6 560.8C146.6 560.579 146.421 560.4 146.2 560.4C145.979 560.4 145.8 560.579 145.8 560.8H146.6ZM146.6 564.8V560.8H145.8V564.8H146.6Z" fill="white"/>
<path d="M140.999 557.967C140.98 557.747 140.787 557.583 140.567 557.601C140.347 557.62 140.183 557.813 140.201 558.033L140.999 557.967ZM149.799 558.033C149.817 557.813 149.653 557.62 149.433 557.601C149.213 557.583 149.02 557.747 149.001 557.967L149.799 558.033ZM148.263 566.833C148.254 566.933 148.209 567.026 148.135 567.094L148.677 567.683C148.898 567.479 149.035 567.199 149.06 566.899L148.263 566.833ZM148.135 567.094C148.061 567.162 147.964 567.2 147.864 567.2L147.864 568C148.165 568 148.455 567.887 148.677 567.683L148.135 567.094ZM147.864 567.2H142.137V568H147.864L147.864 567.2ZM142.137 567.2C142.036 567.2 141.939 567.162 141.866 567.094L141.324 567.683C141.545 567.887 141.835 568 142.137 568V567.2ZM141.866 567.094C141.792 567.026 141.746 566.933 141.738 566.833L140.941 566.899C140.965 567.199 141.102 567.479 141.324 567.683L141.866 567.094ZM141.738 566.833L140.999 557.967L140.201 558.033L140.941 566.899L141.738 566.833ZM149.001 557.967L148.263 566.833L149.06 566.899L149.799 558.033L149.001 557.967Z" fill="white"/>
<rect x="227" y="545" width="98" height="34" rx="5" fill="#141414"/>
<path d="M247 559.557C247 558.837 247 558.477 247.145 558.202C247.273 557.96 247.477 557.763 247.728 557.64C248.013 557.5 248.387 557.5 249.133 557.5H251.45C251.776 557.5 251.939 557.5 252.092 557.536C252.228 557.567 252.358 557.619 252.478 557.689C252.612 557.769 252.728 557.88 252.958 558.103L253.042 558.183C253.272 558.406 253.388 558.517 253.522 558.596C253.642 558.667 253.772 558.719 253.908 558.75C254.061 558.786 254.224 558.786 254.55 558.786H256.867C257.613 558.786 257.987 558.786 258.272 558.926C258.523 559.049 258.727 559.246 258.855 559.488C259 559.763 259 560.123 259 560.843V564.443C259 565.163 259 565.523 258.855 565.798C258.727 566.04 258.523 566.237 258.272 566.36C257.987 566.5 257.613 566.5 256.867 566.5H249.133C248.387 566.5 248.013 566.5 247.728 566.36C247.477 566.237 247.273 566.04 247.145 565.798C247 565.523 247 565.163 247 564.443V559.557Z" stroke="white" stroke-linecap="round" stroke-linejoin="round"/>
<path d="M272.993 567.13C272.239 567.13 271.546 567 270.913 566.74C270.28 566.48 269.73 566.12 269.262 565.661C268.803 565.193 268.447 564.643 268.196 564.01C267.945 563.369 267.819 562.671 267.819 561.917C267.819 561.163 267.945 560.47 268.196 559.837C268.447 559.204 268.803 558.658 269.262 558.199C269.73 557.731 270.28 557.367 270.913 557.107C271.546 556.847 272.239 556.717 272.993 556.717C273.747 556.717 274.436 556.847 275.06 557.107C275.693 557.367 276.243 557.731 276.711 558.199C277.179 558.658 277.539 559.204 277.79 559.837C278.041 560.47 278.167 561.163 278.167 561.917C278.167 562.671 278.041 563.369 277.79 564.01C277.539 564.643 277.179 565.193 276.711 565.661C276.243 566.12 275.693 566.48 275.06 566.74C274.436 567 273.747 567.13 272.993 567.13ZM272.993 566.09C273.582 566.09 274.124 565.986 274.618 565.778C275.121 565.561 275.554 565.267 275.918 564.894C276.291 564.513 276.577 564.071 276.776 563.568C276.975 563.057 277.075 562.506 277.075 561.917C277.075 561.328 276.975 560.782 276.776 560.279C276.577 559.768 276.291 559.326 275.918 558.953C275.554 558.572 275.121 558.277 274.618 558.069C274.124 557.861 273.582 557.757 272.993 557.757C272.404 557.757 271.858 557.861 271.355 558.069C270.852 558.277 270.419 558.572 270.055 558.953C269.691 559.326 269.405 559.768 269.197 560.279C268.998 560.782 268.898 561.328 268.898 561.917C268.898 562.506 268.998 563.057 269.197 563.568C269.405 564.071 269.691 564.513 270.055 564.894C270.419 565.267 270.852 565.561 271.355 565.778C271.858 565.986 272.404 566.09 272.993 566.09ZM280.701 570.042C280.527 570.042 280.389 569.99 280.285 569.886C280.189 569.791 280.142 569.656 280.142 569.483V563.412C280.15 562.736 280.311 562.129 280.623 561.592C280.943 561.046 281.372 560.617 281.91 560.305C282.447 559.984 283.054 559.824 283.73 559.824C284.423 559.824 285.038 559.984 285.576 560.305C286.122 560.617 286.551 561.046 286.863 561.592C287.183 562.138 287.344 562.758 287.344 563.451C287.344 564.136 287.192 564.751 286.889 565.297C286.594 565.843 286.187 566.276 285.667 566.597C285.147 566.909 284.557 567.065 283.899 567.065C283.335 567.065 282.824 566.948 282.365 566.714C281.905 566.471 281.533 566.155 281.247 565.765V569.483C281.247 569.656 281.195 569.791 281.091 569.886C280.987 569.99 280.857 570.042 280.701 570.042ZM283.73 566.077C284.215 566.077 284.648 565.964 285.03 565.739C285.42 565.505 285.723 565.189 285.94 564.79C286.165 564.391 286.278 563.945 286.278 563.451C286.278 562.948 286.165 562.502 285.94 562.112C285.723 561.713 285.42 561.397 285.03 561.163C284.648 560.929 284.215 560.812 283.73 560.812C283.262 560.812 282.833 560.929 282.443 561.163C282.061 561.397 281.762 561.713 281.546 562.112C281.329 562.502 281.221 562.948 281.221 563.451C281.221 563.945 281.329 564.391 281.546 564.79C281.762 565.189 282.061 565.505 282.443 565.739C282.824 565.964 283.253 566.077 283.73 566.077ZM292.583 567.065C291.873 567.065 291.244 566.913 290.698 566.61C290.152 566.298 289.723 565.869 289.411 565.323C289.099 564.777 288.943 564.153 288.943 563.451C288.943 562.74 289.091 562.116 289.385 561.579C289.68 561.033 290.083 560.604 290.594 560.292C291.114 559.98 291.712 559.824 292.388 559.824C293.047 559.824 293.619 559.976 294.104 560.279C294.598 560.574 294.975 560.985 295.235 561.514C295.504 562.043 295.638 562.645 295.638 563.321C295.638 563.468 295.591 563.59 295.495 563.685C295.4 563.772 295.279 563.815 295.131 563.815H289.697V562.918H295.196L294.637 563.308C294.646 562.831 294.559 562.402 294.377 562.021C294.195 561.64 293.935 561.341 293.597 561.124C293.259 560.907 292.856 560.799 292.388 560.799C291.894 560.799 291.461 560.912 291.088 561.137C290.724 561.362 290.443 561.679 290.243 562.086C290.053 562.485 289.957 562.94 289.957 563.451C289.957 563.962 290.07 564.417 290.295 564.816C290.521 565.215 290.828 565.527 291.218 565.752C291.617 565.977 292.072 566.09 292.583 566.09C292.878 566.09 293.177 566.038 293.48 565.934C293.792 565.83 294.039 565.7 294.221 565.544C294.325 565.466 294.442 565.427 294.572 565.427C294.711 565.418 294.824 565.453 294.91 565.531C295.04 565.644 295.105 565.765 295.105 565.895C295.114 566.025 295.058 566.138 294.936 566.233C294.65 566.476 294.286 566.675 293.844 566.831C293.402 566.987 292.982 567.065 292.583 567.065ZM303.402 567C303.237 567 303.103 566.948 302.999 566.844C302.895 566.74 302.843 566.61 302.843 566.454V563.139C302.843 562.61 302.743 562.181 302.544 561.852C302.353 561.514 302.089 561.263 301.751 561.098C301.413 560.925 301.027 560.838 300.594 560.838C300.187 560.838 299.818 560.92 299.489 561.085C299.168 561.241 298.913 561.458 298.722 561.735C298.531 562.004 298.436 562.316 298.436 562.671H297.682C297.699 562.125 297.842 561.64 298.111 561.215C298.388 560.782 298.757 560.439 299.216 560.188C299.675 559.937 300.187 559.811 300.75 559.811C301.357 559.811 301.898 559.941 302.375 560.201C302.86 560.452 303.242 560.825 303.519 561.319C303.805 561.813 303.948 562.42 303.948 563.139V566.454C303.948 566.61 303.896 566.74 303.792 566.844C303.688 566.948 303.558 567 303.402 567ZM297.89 567C297.717 567 297.578 566.952 297.474 566.857C297.379 566.753 297.331 566.619 297.331 566.454V560.448C297.331 560.275 297.379 560.14 297.474 560.045C297.578 559.941 297.717 559.889 297.89 559.889C298.055 559.889 298.185 559.941 298.28 560.045C298.384 560.14 298.436 560.275 298.436 560.448V566.454C298.436 566.619 298.384 566.753 298.28 566.857C298.185 566.952 298.055 567 297.89 567Z" fill="white"/>
<path d="M27.902 106V105.18H29.882V99.45L27.902 100.93V99.93L29.552 98.7H30.782V105.18H32.402V106H27.902Z" fill="white"/>
<path d="M7 65H92V85C92 87.7614 89.7614 90 87 90H12C9.23858 90 7 87.7614 7 85V65Z" fill="#121212"/>
<path d="M36.354 81C36.2473 81 36.154 80.9633 36.074 80.89C36.0007 80.81 35.964 80.7167 35.964 80.61V73.19H36.744V80.61C36.744 80.7167 36.7073 80.81 36.634 80.89C36.5607 80.9633 36.4673 81 36.354 81ZM33.594 73.9C33.4873 73.9 33.4007 73.8667 33.334 73.8C33.2673 73.7333 33.234 73.65 33.234 73.55C33.234 73.4433 33.2673 73.3567 33.334 73.29C33.4007 73.2233 33.4873 73.19 33.594 73.19H39.124C39.2307 73.19 39.3173 73.2233 39.384 73.29C39.4507 73.3567 39.484 73.4433 39.484 73.55C39.484 73.65 39.4507 73.7333 39.384 73.8C39.3173 73.8667 39.2307 73.9 39.124 73.9H33.594ZM41.4428 81.05C40.9295 81.05 40.4695 80.93 40.0628 80.69C39.6561 80.4433 39.3328 80.11 39.0928 79.69C38.8595 79.27 38.7428 78.7967 38.7428 78.27C38.7428 77.7367 38.8628 77.26 39.1028 76.84C39.3495 76.42 39.6828 76.09 40.1028 75.85C40.5228 75.6033 40.9961 75.48 41.5228 75.48C42.0495 75.48 42.5195 75.6033 42.9328 75.85C43.3528 76.09 43.6828 76.42 43.9228 76.84C44.1695 77.26 44.2961 77.7367 44.3028 78.27L43.9928 78.51C43.9928 78.99 43.8795 79.4233 43.6528 79.81C43.4328 80.19 43.1295 80.4933 42.7428 80.72C42.3628 80.94 41.9295 81.05 41.4428 81.05ZM41.5228 80.35C41.9095 80.35 42.2528 80.26 42.5528 80.08C42.8595 79.9 43.0995 79.6533 43.2728 79.34C43.4528 79.02 43.5428 78.6633 43.5428 78.27C43.5428 77.87 43.4528 77.5133 43.2728 77.2C43.0995 76.8867 42.8595 76.64 42.5528 76.46C42.2528 76.2733 41.9095 76.18 41.5228 76.18C41.1428 76.18 40.7995 76.2733 40.4928 76.46C40.1861 76.64 39.9428 76.8867 39.7628 77.2C39.5828 77.5133 39.4928 77.87 39.4928 78.27C39.4928 78.6633 39.5828 79.02 39.7628 79.34C39.9428 79.6533 40.1861 79.9 40.4928 80.08C40.7995 80.26 41.1428 80.35 41.5228 80.35ZM43.9128 81C43.7995 81 43.7061 80.9667 43.6328 80.9C43.5595 80.8267 43.5228 80.7333 43.5228 80.62V78.91L43.7128 78.12L44.3028 78.27V80.62C44.3028 80.7333 44.2661 80.8267 44.1928 80.9C44.1195 80.9667 44.0261 81 43.9128 81ZM48.5704 81.05C48.0504 81.05 47.5804 80.93 47.1604 80.69C46.7471 80.45 46.4171 80.1233 46.1704 79.71C45.9304 79.29 45.8071 78.82 45.8004 78.3V73.58C45.8004 73.46 45.8337 73.3667 45.9004 73.3C45.9737 73.2267 46.0704 73.19 46.1904 73.19C46.3037 73.19 46.3937 73.2267 46.4604 73.3C46.5337 73.3667 46.5704 73.46 46.5704 73.58V76.52C46.7904 76.2067 47.0804 75.9567 47.4404 75.77C47.8071 75.5767 48.2137 75.48 48.6604 75.48C49.1737 75.48 49.6337 75.6033 50.0404 75.85C50.4471 76.09 50.7671 76.42 51.0004 76.84C51.2404 77.26 51.3604 77.7333 51.3604 78.26C51.3604 78.7933 51.2371 79.27 50.9904 79.69C50.7504 80.11 50.4204 80.4433 50.0004 80.69C49.5804 80.93 49.1037 81.05 48.5704 81.05ZM48.5704 80.35C48.9571 80.35 49.3037 80.26 49.6104 80.08C49.9171 79.8933 50.1571 79.6433 50.3304 79.33C50.5104 79.0167 50.6004 78.66 50.6004 78.26C50.6004 77.8667 50.5104 77.5133 50.3304 77.2C50.1571 76.88 49.9171 76.63 49.6104 76.45C49.3037 76.27 48.9571 76.18 48.5704 76.18C48.1904 76.18 47.8471 76.27 47.5404 76.45C47.2337 76.63 46.9937 76.88 46.8204 77.2C46.6471 77.5133 46.5604 77.8667 46.5604 78.26C46.5604 78.66 46.6471 79.0167 46.8204 79.33C46.9937 79.6433 47.2337 79.8933 47.5404 80.08C47.8471 80.26 48.1904 80.35 48.5704 80.35ZM61.3504 75.54C61.4637 75.54 61.5504 75.57 61.6104 75.63C61.6704 75.6833 61.6971 75.7567 61.6904 75.85C61.6837 75.9567 61.6404 76.04 61.5604 76.1C61.4804 76.1533 61.3704 76.18 61.2304 76.18H60.4404L60.1404 77.9H60.9504C61.0637 77.9 61.1471 77.93 61.2004 77.99C61.2537 78.0433 61.2804 78.1133 61.2804 78.2C61.2804 78.2867 61.2404 78.3667 61.1604 78.44C61.0871 78.5067 60.9737 78.54 60.8204 78.54H60.0004L59.6404 80.61C59.6137 80.73 59.5604 80.8267 59.4804 80.9C59.4071 80.9667 59.3104 81 59.1904 81C59.0837 81 59.0004 80.9667 58.9404 80.9C58.8871 80.8267 58.8737 80.73 58.9004 80.61L59.2504 78.54H57.3104L56.9504 80.61C56.9304 80.7167 56.8804 80.81 56.8004 80.89C56.7204 80.9633 56.6237 81 56.5104 81C56.4037 81 56.3204 80.9667 56.2604 80.9C56.2071 80.8333 56.1904 80.7367 56.2104 80.61L56.5704 78.54H55.7304C55.6237 78.54 55.5404 78.5133 55.4804 78.46C55.4271 78.4067 55.4037 78.3367 55.4104 78.25C55.4171 78.1367 55.4604 78.05 55.5404 77.99C55.6204 77.93 55.7204 77.9 55.8404 77.9H56.7104L57.0004 76.18H56.1704C56.0504 76.18 55.9604 76.1533 55.9004 76.1C55.8404 76.0467 55.8104 75.9733 55.8104 75.88C55.8104 75.7733 55.8504 75.69 55.9304 75.63C56.0104 75.57 56.1204 75.54 56.2604 75.54H57.1404L57.5004 73.53C57.5204 73.4167 57.5704 73.3233 57.6504 73.25C57.7304 73.17 57.8271 73.13 57.9404 73.13C58.0471 73.13 58.1271 73.1667 58.1804 73.24C58.2404 73.3133 58.2604 73.4067 58.2404 73.52L57.8804 75.54H59.8304L60.1904 73.53C60.2037 73.4167 60.2504 73.3233 60.3304 73.25C60.4171 73.17 60.5171 73.13 60.6304 73.13C60.7571 73.13 60.8404 73.17 60.8804 73.25C60.9271 73.3233 60.9404 73.4133 60.9204 73.52L60.5704 75.54H61.3504ZM59.3904 77.9L59.6904 76.18H57.7404L57.4504 77.9H59.3904ZM64.5267 81C64.4201 81 64.3267 80.9633 64.2467 80.89C64.1734 80.8167 64.1367 80.7233 64.1367 80.61V74.11L63.1367 74.46C63.0634 74.4933 62.9967 74.51 62.9367 74.51C62.8234 74.51 62.7301 74.4733 62.6567 74.4C62.5834 74.3267 62.5467 74.2367 62.5467 74.13C62.5467 74.05 62.5634 73.9767 62.5967 73.91C62.6367 73.8433 62.7034 73.7933 62.7967 73.76L64.3367 73.23C64.3701 73.2167 64.4034 73.2067 64.4367 73.2C64.4767 73.1867 64.5101 73.18 64.5367 73.18C64.6501 73.18 64.7401 73.22 64.8067 73.3C64.8801 73.3733 64.9167 73.4633 64.9167 73.57V80.61C64.9167 80.7233 64.8801 80.8167 64.8067 80.89C64.7334 80.9633 64.6401 81 64.5267 81Z" fill="white"/>
<path d="M78.4363 79.44C78.3296 79.44 78.2363 79.4033 78.1563 79.33C78.0829 79.2567 78.0463 79.1633 78.0463 79.05C78.0463 78.9367 78.0796 78.8433 78.1463 78.77L79.4463 77.48L78.1463 76.19C78.0796 76.11 78.0463 76.0233 78.0463 75.93C78.0463 75.8167 78.0829 75.7233 78.1563 75.65C78.2296 75.57 78.3229 75.53 78.4363 75.53C78.5429 75.53 78.6363 75.5667 78.7163 75.64L79.9963 76.93L81.2863 75.64C81.3596 75.5667 81.4529 75.53 81.5663 75.53C81.6729 75.53 81.7629 75.5667 81.8363 75.64C81.9163 75.7133 81.9563 75.8067 81.9563 75.92C81.9563 76.0267 81.9196 76.1167 81.8463 76.19L80.5563 77.48L81.8463 78.77C81.9196 78.85 81.9563 78.9433 81.9563 79.05C81.9563 79.1633 81.9163 79.2567 81.8363 79.33C81.7629 79.4033 81.6729 79.44 81.5663 79.44C81.4596 79.44 81.3696 79.4067 81.2963 79.34L79.9963 78.04L78.7063 79.34C78.6329 79.4067 78.5429 79.44 78.4363 79.44Z" fill="#2B2B2B"/>
<rect x="53" y="95" width="871" height="15" fill="#1B1B1B"/>
<defs>
<clipPath id="clip0_1_2">
<rect width="12" height="12" fill="white" transform="translate(838 556)"/>
</clipPath>
</defs>
</svg>
